<svg xmlns="http://www.w3.org/2000/svg" viewBox="0 0 64 64">
  <circle cx="28" cy="28" r="12" fill="#FFD54F"/>
  <g stroke="#FFD54F" stroke-width="4" stroke-linecap="round">
    <line x1="28" y1="4" x2="28" y2="12"/>
    <line x1="28" y1="44" x2="28" y2="52"/>
    <line x1="4" y1="28" x2="12" y2="28"/>
    <line x1="44" y1="28" x2="52" y2="28"/>
    <line x1="12" y1="12" x2="18" y2="18"/>
    <line x1="38" y1="38" x2="44" y2="44"/>
    <line x1="12" y1="44" x2="18" y2="38"/>
    <line x1="38" y1="18" x2="44" y2="12"/>
  </g>
  <path d="M44 36a10 10 0 0 1 0 20H24a8 8 0 0 1 0-16h1a12 12 0 0 1 19-4z" fill="#757575"/>
</svg>
